<?xml version="1.0" encoding="utf-8"?>
<!-- Generator: Adobe Illustrator 16.0.4, SVG Export Plug-In . SVG Version: 6.00 Build 0)  -->
<!DOCTYPE svg PUBLIC "-//W3C//DTD SVG 1.1//EN" "http://www.w3.org/Graphics/SVG/1.1/DTD/svg11.dtd">
<svg version="1.1" id="Layer_1" xmlns="http://www.w3.org/2000/svg" xmlns:xlink="http://www.w3.org/1999/xlink" x="0px" y="0px"
	 width="170px" height="170px" viewBox="0 0 170 170" enable-background="new 0 0 170 170" xml:space="preserve">
<path fill="#FFFFFF" d="M87.02,170v-55.716c-13.498,0.061-23.615-7.718-28.771-21.878L78.55,85.93
	c3.569,8.448,10.635,11.559,19.137,8.123c7.962-3.216,11.153-10.471,7.773-18.838c-3.108-7.691-10.204-12.045-18.706-8.611
	c-6.344,2.563-8.977,6.924-9.744,11.629l-20.302,6.477c-2.665-12.424-8.558-35.943-13.823-50.143L95.38,13.357l7.252,17.949
	L65.251,46.408c1.257,3.888,3.122,11.611,3.863,15.393c1.959-4.088,6.16-8.453,13.987-11.617
	c19.703-7.959,34.734,0.881,41.385,17.344c7.471,18.488-1.524,35.466-20.147,42.989c-2.16,0.873-4.269,1.589-6.322,2.154V170H87.02z
	"/>
</svg>
