<?xml version="1.0" encoding="utf-8"?>
<!-- Generator: Adobe Illustrator 16.0.4, SVG Export Plug-In . SVG Version: 6.00 Build 0)  -->
<!DOCTYPE svg PUBLIC "-//W3C//DTD SVG 1.1//EN" "http://www.w3.org/Graphics/SVG/1.1/DTD/svg11.dtd">
<svg version="1.1" id="Layer_1" xmlns="http://www.w3.org/2000/svg" xmlns:xlink="http://www.w3.org/1999/xlink" x="0px" y="0px"
	 width="248px" height="496px" viewBox="0 0 248 496" enable-background="new 0 0 248 496" xml:space="preserve">
<g>
	<defs>
		<rect id="SVGID_1_" x="-0.302" y="-0.056" width="248.604" height="496.111"/>
	</defs>
	<clipPath id="SVGID_2_">
		<use xlink:href="#SVGID_1_"  overflow="visible"/>
	</clipPath>
	<g clip-path="url(#SVGID_2_)">
		<defs>
			<rect id="SVGID_3_" x="-0.302" y="-0.056" width="248.604" height="496.111"/>
		</defs>
		<clipPath id="SVGID_4_">
			<use xlink:href="#SVGID_3_"  overflow="visible"/>
		</clipPath>
		<g clip-path="url(#SVGID_4_)">
			<g>
				<defs>
					<rect id="SVGID_5_" x="-9.302" y="-8.056" width="266.604" height="505.111"/>
				</defs>
				<clipPath id="SVGID_6_">
					<use xlink:href="#SVGID_5_"  overflow="visible"/>
				</clipPath>
				<path clip-path="url(#SVGID_6_)" fill="#F05367" d="M248.303,496.056V-0.057h-89.73l11.725,21.205l21.834-10.763l9.213,16.479
					l-16.058,8.538l28.76,54.09l16.059-8.538l9.212,17.326l-53.104,28.236L177,109.191l16.058-8.538l-28.76-54.091l-16.059,8.539
					l-9.212-17.326L160.4,26.411l0.462-0.245L146.469-0.057H98.992L87.773,28.324l2.939,1.128
					c24.279,9.32,31.85,25.216,24.932,43.238c-5.318,13.854-17.422,19.118-29.464,16.205c9.237,5.768,12.667,13.749,9.479,25.172
					c-3.977,14.368-5.246,19.008-3.433,23.634l-22.939-8.805c-0.964-3.276,0.189-9.84,3.275-20.105
					c3.315-10.861-0.137-16.117-9.521-19.72L44.124,81.81l-12.522,32.621L9.408,105.91l16.056-41.826l3.91-10.186L45.43,12.07
					l32.367,12.424l9.749-24.551H-0.302v496.112h72.344l-6.364-16.443c-21.958,5.753-40.982-0.85-48.751-21.355l20.456-8.604
					c5.813,12.642,17.49,14.189,29.128,9.78c9.996-3.787,14.793-10.041,12.419-16.307c-2.374-6.268-8.46-5.667-17.288-4.199
					l-18.793,3.537c-15.994,2.818-29.753-1.524-35.801-17.489c-7.01-18.501,3.11-35.473,25.938-44.121
					c25.514-9.666,44.194-2.241,52.556,18.478l-20.662,8.511c-4.78-10.815-14.425-13.303-25.316-9.177
					c-9.549,3.618-13.451,9.532-11.02,15.947c2.035,5.371,6.947,5.729,14.32,4.472l18.792-3.537
					c20.547-3.861,32.968,2.353,38.79,17.721c7.028,18.548-4.621,34.341-24.442,42.806l7.728,19.981h76.448l6.618-17.24
					l-35.09-13.47l36.022-93.84l36.345,13.951c29.005,11.134,41.624,33.826,33.641,60.904l-3.909,10.186
					c-10.917,22.809-31.763,31.93-56.836,25.587l-5.344,13.922H248.303z M80.161,46.253l-19.513-7.49l-9.834,25.62l19.513,7.489
					c11.767,4.518,18.891,3.321,22.436-5.913C95.965,57.616,91.929,50.77,80.161,46.253 M183.51,398.07l-22.299,58.093l12.214,4.688
					c17.726,6.804,32.12,0.024,39.21-18.446c6.977-18.172,0.815-32.842-16.911-39.646L183.51,398.07z"/>
			</g>
		</g>
	</g>
</g>
</svg>
