<?xml version="1.0" encoding="utf-8"?>
<!-- Generator: Adobe Illustrator 16.0.4, SVG Export Plug-In . SVG Version: 6.00 Build 0)  -->
<!DOCTYPE svg PUBLIC "-//W3C//DTD SVG 1.1//EN" "http://www.w3.org/Graphics/SVG/1.1/DTD/svg11.dtd">
<svg version="1.1" id="Layer_1" xmlns="http://www.w3.org/2000/svg" xmlns:xlink="http://www.w3.org/1999/xlink" x="0px" y="0px"
	 width="350px" height="350px" viewBox="0 0 350 350" enable-background="new 0 0 350 350" xml:space="preserve">
<path fill="#FFFFFF" d="M152.514,350v-80.369c-31.891,0.145-55.794-18.233-67.979-51.688l47.968-15.302
	c8.435,19.958,25.126,27.309,45.212,19.192c18.812-7.6,26.352-24.74,18.365-44.507c-7.343-18.174-24.108-28.461-44.196-20.345
	c-14.984,6.054-21.207,16.356-23.02,27.474l-47.967,15.3c-6.296-29.352-20.218-84.923-32.659-118.468l124.027-50.11l17.133,42.405
	l-88.317,35.683c2.969,9.186,7.375,27.433,9.13,36.366c4.628-9.658,14.554-19.974,33.046-27.445
	c46.551-18.807,82.063,2.078,97.778,40.977c17.648,43.681-3.604,83.792-47.604,101.569c-5.104,2.062-10.083,3.752-14.937,5.089V350
	H152.514z"/>
</svg>
