<?xml version="1.0" encoding="utf-8"?>
<!-- Generator: Adobe Illustrator 16.0.4, SVG Export Plug-In . SVG Version: 6.00 Build 0)  -->
<!DOCTYPE svg PUBLIC "-//W3C//DTD SVG 1.1//EN" "http://www.w3.org/Graphics/SVG/1.1/DTD/svg11.dtd">
<svg version="1.1" id="Layer_1" xmlns="http://www.w3.org/2000/svg" xmlns:xlink="http://www.w3.org/1999/xlink" x="0px" y="0px"
	 width="256.782px" height="325.474px" viewBox="0 0 256.782 325.474" enable-background="new 0 0 256.782 325.474"
	 xml:space="preserve">
<path fill="#FFFFFF" d="M211.657,0l-26.508,67.053l6.943,2.665c57.364,22.02,75.251,59.574,58.905,102.157
	c-12.563,32.729-41.162,45.17-69.611,38.287c21.822,13.627,29.927,32.485,22.395,59.473c-9.396,33.946-12.394,44.909-8.11,55.839
	l-54.197-20.804c-2.278-7.738,0.445-23.249,7.737-47.503c7.832-25.662-0.323-38.079-22.494-46.59l-44.695-17.156l-29.585,77.071
	L0,250.364l37.936-98.825l9.237-24.064L85.108,28.65l76.471,29.355L184.613,0H211.657z M167.166,109.411l-46.102-17.697
	l-23.236,60.531l46.102,17.697c27.802,10.672,44.635,7.847,53.01-13.973C204.505,136.261,194.968,120.083,167.166,109.411"/>
</svg>
