<?xml version="1.0" encoding="utf-8"?>
<!-- Generator: Adobe Illustrator 16.0.4, SVG Export Plug-In . SVG Version: 6.00 Build 0)  -->
<!DOCTYPE svg PUBLIC "-//W3C//DTD SVG 1.1//EN" "http://www.w3.org/Graphics/SVG/1.1/DTD/svg11.dtd">
<svg version="1.1" id="Layer_1" xmlns="http://www.w3.org/2000/svg" xmlns:xlink="http://www.w3.org/1999/xlink" x="0px" y="0px"
	 width="230.71px" height="282.08px" viewBox="0 0 230.71 282.08" enable-background="new 0 0 230.71 282.08" xml:space="preserve">
<path fill="#FFFFFF" d="M158.734,282.08L143.7,243.232c-51.88,13.59-96.827-2.01-115.183-50.457l48.331-20.327
	c13.734,29.867,41.322,33.523,68.818,23.106c23.618-8.947,34.951-23.723,29.342-38.527c-5.609-14.807-19.987-13.39-40.845-9.921
	l-44.401,8.355c-37.789,6.658-70.296-3.6-84.587-41.318C-11.385,70.432,12.525,30.333,66.46,9.9
	c60.279-22.838,104.415-5.295,124.17,43.656l-48.816,20.106C130.521,48.112,107.733,42.232,82,51.982
	c-22.561,8.547-31.779,22.521-26.036,37.679c4.809,12.69,16.415,13.532,33.832,10.562l44.401-8.355
	c48.546-9.121,77.892,5.561,91.647,41.869c16.604,43.824-10.919,81.137-57.75,101.134l18.261,47.21H158.734z"/>
</svg>
