<?xml version="1.0" encoding="utf-8"?>
<!-- Generator: Adobe Illustrator 16.0.0, SVG Export Plug-In . SVG Version: 6.00 Build 0)  -->
<!DOCTYPE svg PUBLIC "-//W3C//DTD SVG 1.0//EN" "http://www.w3.org/TR/2001/REC-SVG-20010904/DTD/svg10.dtd">
<svg version="1.0" id="Layer_1" xmlns="http://www.w3.org/2000/svg" xmlns:xlink="http://www.w3.org/1999/xlink" x="0px" y="0px"
	 width="44.562px" height="39.681px" viewBox="3 5 38.562 39.681" enable-background="new 0 0 44.562 39.681" xml:space="preserve">
<g>
	<path d="M0,3.84C0,1.76,1.76,0,3.84,0h36.88c2.16,0,3.841,1.76,3.841,3.84c0,2.16-1.681,3.84-3.841,3.84H3.84C1.76,7.68,0,6,0,3.84
		z M44.562,19.92c0,2.08-1.681,3.84-3.841,3.84H3.84C1.76,23.76,0,22,0,19.92c0-2.16,1.76-3.841,3.84-3.841h36.88
		C42.881,16.08,44.562,17.76,44.562,19.92z M44.562,35.841c0,2.159-1.681,3.84-3.841,3.84H3.84C1.76,39.681,0,38,0,35.841
		C0,33.761,1.76,32,3.84,32h36.88C42.881,32,44.562,33.761,44.562,35.841z"/>
</g>
</svg>
