<?xml version="1.0" encoding="utf-8"?>
<!-- Generator: Adobe Illustrator 16.0.4, SVG Export Plug-In . SVG Version: 6.00 Build 0)  -->
<!DOCTYPE svg PUBLIC "-//W3C//DTD SVG 1.1//EN" "http://www.w3.org/Graphics/SVG/1.1/DTD/svg11.dtd">
<svg version="1.1" id="Layer_1" xmlns="http://www.w3.org/2000/svg" xmlns:xlink="http://www.w3.org/1999/xlink" x="0px" y="0px"
	 width="350px" height="350px" viewBox="0 0 350 350" enable-background="new 0 0 350 350" xml:space="preserve">
<path fill="#FFFFFF" d="M180.477,0v110.431c38.632-4.017,65.973,15.451,75.534,47.728c10.743,36.268-4.926,62.07-30.047,97.127
	l-21.946,31.247l86.385-25.589l12.306,41.544l-158.923,47.075l-10.352-34.948l43.599-63.484
	c24.267-35.521,33.879-52.714,27.433-74.475c-4.591-15.497-15.592-24.79-34.386-19.223c-19.783,5.86-24.156,22.577-18.296,42.36
	c2.246,7.583,4.798,12.565,7.484,16.791l-49.188,13.135c-3.272-6.203-6.544-12.407-8.4-18.671
	c-12.641-42.677,8.843-79.732,52.815-94.794V0H180.477z"/>
</svg>
