<?xml version="1.0" encoding="utf-8"?>
<!-- Generator: Adobe Illustrator 16.0.4, SVG Export Plug-In . SVG Version: 6.00 Build 0)  -->
<!DOCTYPE svg PUBLIC "-//W3C//DTD SVG 1.1//EN" "http://www.w3.org/Graphics/SVG/1.1/DTD/svg11.dtd">
<svg version="1.1" id="Layer_1" xmlns="http://www.w3.org/2000/svg" xmlns:xlink="http://www.w3.org/1999/xlink" x="0px" y="0px"
	 width="900px" height="677px" viewBox="0 0 900 677" enable-background="new 0 0 900 677" xml:space="preserve">
<g>
	<g>
		<path fill="#EF5367" d="M899.618,677.106V-0.106H682.891l27.702,50.1l51.587-25.429L783.946,63.5l-37.94,20.173l67.951,127.796
			l37.938-20.173l21.767,40.935l-125.468,66.712l-21.766-40.935l37.94-20.173l-67.951-127.796l-37.939,20.173l-21.766-40.935
			l50.496-26.849l1.092-0.581L654.296-0.106H377.211l-26.507,67.053l6.944,2.665c57.364,22.02,75.251,59.574,58.905,102.157
			c-12.564,32.729-41.163,45.17-69.612,38.288c21.823,13.626,29.927,32.484,22.394,59.473c-9.396,33.944-12.393,44.908-8.11,55.839
			l-54.196-20.804c-2.279-7.739,0.445-23.249,7.736-47.503c7.832-25.663-0.323-38.08-22.494-46.591l-44.694-17.156l-29.585,77.072
			l-52.437-20.129l37.935-98.825l9.237-24.064l37.935-98.824l76.471,29.354l23.034-58.005H0.382v677.212h170.922l-15.034-38.85
			c-51.88,13.59-96.827-2.008-115.182-50.456l48.331-20.327c13.734,29.867,41.322,33.524,68.818,23.107
			c23.618-8.949,34.951-23.723,29.342-38.529c-5.609-14.805-19.988-13.389-40.845-9.921l-44.401,8.357
			c-37.789,6.657-70.296-3.602-84.586-41.319c-16.561-43.712,7.349-83.81,61.283-104.244c60.279-22.838,104.415-5.295,124.17,43.656
			l-48.817,20.108c-11.293-25.553-34.079-31.432-59.813-21.683c-22.56,8.548-31.778,22.521-26.035,37.679
			c4.808,12.691,16.414,13.534,33.832,10.563l44.401-8.357c48.545-9.121,77.891,5.561,91.647,41.869
			c16.604,43.824-10.919,81.139-57.749,101.135l18.26,47.211h315.291l15.636-40.733l-82.905-31.824l85.107-221.713l85.87,32.962
			c68.53,26.306,98.343,79.918,79.483,143.898l-9.237,24.062c-25.792,53.892-75.045,75.441-134.283,60.453l-12.627,32.895H899.618z
			 M332.72,109.305l-46.102-17.697l-23.236,60.531l46.103,17.697c27.802,10.673,44.634,7.847,53.01-13.972
			C370.06,136.156,360.522,119.978,332.72,109.305 M569.337,445.601L516.65,582.852l28.858,11.078
			c41.879,16.075,75.889,0.059,92.64-43.581c16.481-42.935,1.926-77.595-39.954-93.67L569.337,445.601z"/>
	</g>
</g>
</svg>
