<?xml version="1.0" encoding="utf-8"?>
<!-- Generator: Adobe Illustrator 16.0.4, SVG Export Plug-In . SVG Version: 6.00 Build 0)  -->
<!DOCTYPE svg PUBLIC "-//W3C//DTD SVG 1.1//EN" "http://www.w3.org/Graphics/SVG/1.1/DTD/svg11.dtd">
<svg version="1.1" id="Layer_1" xmlns="http://www.w3.org/2000/svg" xmlns:xlink="http://www.w3.org/1999/xlink" x="0px" y="0px"
	 width="350px" height="350px" viewBox="0 0 350 350" enable-background="new 0 0 350 350" xml:space="preserve">
<path fill="#FFFFFF" d="M350,186H244.488c-1.239,7.071-3.003,14.388-5.31,21.933c-21.014,68.729-68.722,96.575-124.954,79.383
	C57.99,270.124,34.011,220.36,55.022,151.63c21.013-68.729,68.721-96.575,124.954-79.382c42.131,12.88,66.157,44.044,66.721,87.769
	H350V186z M186.562,191.846c13.975-45.71,9.101-70.933-18.852-79.479s-46.098,9.64-60.072,55.35
	c-13.976,45.71-9.102,70.933,18.851,79.478C154.442,255.741,172.587,237.556,186.562,191.846"/>
</svg>
