<?xml version="1.0" encoding="utf-8"?>
<!-- Generator: Adobe Illustrator 16.0.4, SVG Export Plug-In . SVG Version: 6.00 Build 0)  -->
<!DOCTYPE svg PUBLIC "-//W3C//DTD SVG 1.1//EN" "http://www.w3.org/Graphics/SVG/1.1/DTD/svg11.dtd">
<svg version="1.1" id="Layer_1" xmlns="http://www.w3.org/2000/svg" xmlns:xlink="http://www.w3.org/1999/xlink" x="0px" y="0px"
	 width="143.037px" height="95.219px" viewBox="26.963 37.39 143.037 95.219" enable-background="new 26.963 37.39 143.037 95.219"
	 xml:space="preserve">
<path fill="#FFFFFF" d="M170,87.631h-59.658c-0.523,2.993-1.271,6.09-2.246,9.284c-8.895,29.09-29.087,40.875-52.888,33.599
	c-23.801-7.277-33.951-28.339-25.058-57.429c8.894-29.09,29.087-40.876,52.888-33.599c17.832,5.451,28,18.642,28.239,37.148H170
	V87.631z M85.825,90.105c5.915-19.347,3.852-30.022-7.979-33.64c-11.831-3.617-19.512,4.08-25.427,23.427s-3.852,30.023,7.979,33.64
	C72.23,117.15,79.91,109.453,85.825,90.105"/>
</svg>
