<?xml version="1.0" encoding="utf-8"?>
<!-- Generator: Adobe Illustrator 16.0.4, SVG Export Plug-In . SVG Version: 6.00 Build 0)  -->
<!DOCTYPE svg PUBLIC "-//W3C//DTD SVG 1.1//EN" "http://www.w3.org/Graphics/SVG/1.1/DTD/svg11.dtd">
<svg version="1.1" id="Layer_1" xmlns="http://www.w3.org/2000/svg" xmlns:xlink="http://www.w3.org/1999/xlink" x="0px" y="0px"
	 width="86.605px" height="167.954px"
	 viewBox="41.697 0 86.605 167.954" enable-background="new 41.697 0 86.605 167.954"
	 xml:space="preserve">
<path fill="#FFFFFF" d="M76.568,0v66.74c16.351-1.7,27.923,6.54,31.97,20.201c4.547,15.351-2.085,26.271-12.718,41.108
	l-9.288,13.226l36.562-10.83l5.209,17.584l-67.264,19.925l-4.382-14.793l18.454-26.869c10.271-15.035,14.34-22.312,11.61-31.522
	c-1.942-6.559-6.599-10.493-14.554-8.137c-8.373,2.481-10.224,9.557-7.743,17.93c0.95,3.209,2.03,5.318,3.167,7.106l-20.819,5.56
	c-1.385-2.625-2.77-5.25-3.555-7.902C37.866,91.264,46.96,75.58,65.571,69.204V0H76.568z"/>
</svg>
