<?xml version="1.0" encoding="utf-8"?>
<!-- Generator: Adobe Illustrator 16.0.4, SVG Export Plug-In . SVG Version: 6.00 Build 0)  -->
<!DOCTYPE svg PUBLIC "-//W3C//DTD SVG 1.1//EN" "http://www.w3.org/Graphics/SVG/1.1/DTD/svg11.dtd">
<svg version="1.1" id="Layer_1" xmlns="http://www.w3.org/2000/svg" xmlns:xlink="http://www.w3.org/1999/xlink" x="0px" y="0px"
	 width="108.684px" height="137.757px" viewBox="0 0 108.684 137.757" enable-background="new 0 0 108.684 137.757"
	 xml:space="preserve">
<path fill="#FFFFFF" d="M89.584,0L78.365,28.38l2.938,1.128c24.279,9.32,31.851,25.215,24.932,43.238
	c-5.317,13.853-17.423,19.118-29.464,16.205c9.236,5.768,12.667,13.75,9.479,25.172c-3.978,14.368-5.245,19.008-3.432,23.634
	l-22.939-8.805c-0.964-3.275,0.188-9.84,3.274-20.106c3.314-10.861-0.137-16.117-9.521-19.719l-18.917-7.262l-12.522,32.621
	L0,105.967l16.056-41.828l3.91-10.185l16.056-41.828L68.388,24.55L78.137,0H89.584z M70.753,46.308l-19.513-7.49l-9.835,25.62
	l19.513,7.49c11.768,4.517,18.892,3.321,22.437-5.914C86.557,57.673,82.52,50.825,70.753,46.308"/>
</svg>
