<?xml version="1.0" encoding="utf-8"?>
<!-- Generator: Adobe Illustrator 16.0.4, SVG Export Plug-In . SVG Version: 6.00 Build 0)  -->
<!DOCTYPE svg PUBLIC "-//W3C//DTD SVG 1.1//EN" "http://www.w3.org/Graphics/SVG/1.1/DTD/svg11.dtd">
<svg version="1.1" id="Layer_1" xmlns="http://www.w3.org/2000/svg" xmlns:xlink="http://www.w3.org/1999/xlink" x="0px" y="0px"
	 width="97.648px" height="119.391px" viewBox="0 0 97.648 119.391" enable-background="new 0 0 97.648 119.391"
	 xml:space="preserve">
<path fill="#FFFFFF" d="M67.185,119.391l-6.363-16.443c-21.959,5.752-40.983-0.85-48.752-21.355l20.457-8.604
	c5.813,12.642,17.489,14.189,29.127,9.78c9.997-3.787,14.793-10.041,12.419-16.307c-2.374-6.268-8.46-5.667-17.287-4.199
	L37.992,65.8C21.998,68.618,8.239,64.276,2.19,48.311C-4.818,29.81,5.301,12.839,28.129,4.19
	c25.513-9.666,44.194-2.24,52.555,18.477l-20.662,8.512C55.242,20.364,45.599,17.875,34.707,22
	c-9.549,3.619-13.45,9.533-11.02,15.949c2.035,5.371,6.948,5.728,14.32,4.471l18.793-3.537c20.547-3.861,32.968,2.354,38.791,17.721
	c7.026,18.548-4.622,34.342-24.443,42.805l7.729,19.982H67.185z"/>
</svg>
