<?xml version="1.0" encoding="utf-8"?>
<!-- Generator: Adobe Illustrator 16.0.4, SVG Export Plug-In . SVG Version: 6.00 Build 0)  -->
<!DOCTYPE svg PUBLIC "-//W3C//DTD SVG 1.1//EN" "http://www.w3.org/Graphics/SVG/1.1/DTD/svg11.dtd">
<svg version="1.1" id="Layer_1" xmlns="http://www.w3.org/2000/svg" xmlns:xlink="http://www.w3.org/1999/xlink" x="0px" y="0px"
	 width="260.125px" height="421.508px" viewBox="82.438 0 260.125 421.508" enable-background="new 82.438 0 260.125 421.508"
	 xml:space="preserve">
<path fill="#FFFFFF" d="M187.173,0v117.505c49.112-5.107,83.87,19.642,96.024,60.675c13.656,46.108-6.262,78.908-38.198,123.474
	L217.1,341.379l109.819-32.529l15.645,52.812l-202.035,59.846l-13.161-44.432l55.428-80.705
	c30.851-45.157,43.068-67.014,34.874-94.678c-5.835-19.7-19.822-31.515-43.714-24.438c-25.149,7.451-30.708,28.701-23.26,53.853
	c2.856,9.641,6.101,15.975,9.516,21.346L97.68,269.152c-4.16-7.887-8.319-15.772-10.678-23.736
	c-16.071-54.254,11.241-101.36,67.142-120.508V0H187.173z"/>
</svg>
