<?xml version="1.0" encoding="utf-8"?>
<!-- Generator: Adobe Illustrator 16.0.4, SVG Export Plug-In . SVG Version: 6.00 Build 0)  -->
<!DOCTYPE svg PUBLIC "-//W3C//DTD SVG 1.1//EN" "http://www.w3.org/Graphics/SVG/1.1/DTD/svg11.dtd">
<svg version="1.1" id="Layer_1" xmlns="http://www.w3.org/2000/svg" xmlns:xlink="http://www.w3.org/1999/xlink" x="0px" y="0px"
	 width="252.99px" height="405.31px" viewBox="85.005 18.69 252.99 405.31" enable-background="new 85.005 18.69 252.99 405.31"
	 xml:space="preserve">
<path fill="#FFFFFF" d="M217.566,424V321.829c-40.542,0.183-70.928-23.181-86.418-65.71l60.979-19.451
	c10.725,25.372,31.943,34.715,57.479,24.398c23.914-9.662,33.5-31.451,23.347-56.582c-9.334-23.104-30.647-36.182-56.185-25.864
	c-19.051,7.697-26.96,20.794-29.266,34.927l-60.979,19.451c-8.004-37.314-25.703-107.96-41.518-150.605L242.678,18.69l21.779,53.908
	L152.184,117.96c3.773,11.677,9.375,34.874,11.605,46.231c5.885-12.278,18.502-25.393,42.012-34.891
	c59.178-23.908,104.322,2.643,124.303,52.092c22.435,55.531-4.584,106.523-60.52,129.122c-6.486,2.621-12.816,4.771-18.986,6.471
	V424H217.566z"/>
</svg>
