<?xml version="1.0" encoding="utf-8"?>
<!-- Generator: Adobe Illustrator 16.0.4, SVG Export Plug-In . SVG Version: 6.00 Build 0)  -->
<!DOCTYPE svg PUBLIC "-//W3C//DTD SVG 1.1//EN" "http://www.w3.org/Graphics/SVG/1.1/DTD/svg11.dtd">
<svg version="1.1" id="Layer_1" xmlns="http://www.w3.org/2000/svg" xmlns:xlink="http://www.w3.org/1999/xlink" x="0px" y="0px"
	 width="294.942px" height="376.139px" viewBox="0 0 294.942 376.139" enable-background="new 0 0 294.942 376.139"
	 xml:space="preserve">
<path fill="#FFFFFF" d="M226.207,181.444c-9.62,25.063-28.954,28.308-60.888,16.05l-52.954-20.327l26.689-69.527l52.953,20.327
	C223.941,140.226,234.896,158.808,226.207,181.444 M220.64,82.376l-7.975-3.062L243.11,0h-31.062l-26.457,68.922L97.756,35.205
	L54.183,148.716l-10.61,27.64L0,289.866l60.229,23.121l33.981-88.526l51.337,19.706c25.466,9.776,34.832,24.038,25.837,53.514
	c-8.375,27.859-11.503,45.674-8.886,54.563l62.25,23.895c-4.921-12.555-1.478-25.147,9.314-64.137
	c8.653-30.999-0.656-52.66-25.722-68.311c32.677,7.906,65.525-6.384,79.957-43.977C307.073,150.803,286.527,107.668,220.64,82.376"
	/>
</svg>
