<?xml version="1.0" encoding="utf-8"?>
<!-- Generator: Adobe Illustrator 16.0.4, SVG Export Plug-In . SVG Version: 6.00 Build 0)  -->
<!DOCTYPE svg PUBLIC "-//W3C//DTD SVG 1.1//EN" "http://www.w3.org/Graphics/SVG/1.1/DTD/svg11.dtd">
<svg version="1.1" id="Layer_1" xmlns="http://www.w3.org/2000/svg" xmlns:xlink="http://www.w3.org/1999/xlink" x="0px" y="0px"
	 width="264.995px" height="323.999px" viewBox="0 0 264.995 323.999" enable-background="new 0 0 264.995 323.999"
	 xml:space="preserve">
<path fill="#FFFFFF" d="M182.322,323.999l-17.269-44.622c-59.589,15.61-111.215-2.306-132.299-57.954l55.514-23.348
	c15.775,34.306,47.463,38.506,79.045,26.541c27.128-10.278,40.145-27.248,33.702-44.254c-6.443-17.006-22.958-15.379-46.915-11.396
	l-50.999,9.6c-43.404,7.646-80.743-4.137-97.156-47.46c-19.023-50.208,8.441-96.265,70.39-119.734
	c69.237-26.231,119.932-6.082,142.624,50.144L162.887,84.61c-12.971-29.35-39.144-36.103-68.701-24.903
	c-25.914,9.817-36.501,25.867-29.905,43.278c5.522,14.576,18.854,15.545,38.86,12.132l50.999-9.599
	c55.76-10.477,89.467,6.387,105.267,48.092c19.071,50.336-12.541,93.194-66.331,116.163l20.973,54.226H182.322z"/>
</svg>
