<?xml version="1.0" encoding="utf-8"?>
<!-- Generator: Adobe Illustrator 16.0.4, SVG Export Plug-In . SVG Version: 6.00 Build 0)  -->
<!DOCTYPE svg PUBLIC "-//W3C//DTD SVG 1.1//EN" "http://www.w3.org/Graphics/SVG/1.1/DTD/svg11.dtd">
<svg version="1.1" id="Layer_1" xmlns="http://www.w3.org/2000/svg" xmlns:xlink="http://www.w3.org/1999/xlink" x="0px" y="0px"
	 width="425px" height="425px" viewBox="0 0 425 425" enable-background="new 0 0 425 425" xml:space="preserve">
<path fill="#FFFFFF" d="M218.566,425V322.829c-40.541,0.183-70.928-23.18-86.418-65.71l60.979-19.451
	c10.725,25.372,31.943,34.715,57.479,24.398c23.914-9.662,33.5-31.451,23.346-56.581c-9.334-23.104-30.648-36.182-56.184-25.864
	c-19.051,7.697-26.961,20.794-29.266,34.927l-60.979,19.451c-8.004-37.314-25.703-107.96-41.518-150.605L243.678,19.69
	l21.779,53.908l-112.273,45.362c3.773,11.677,9.375,34.874,11.605,46.231c5.885-12.278,18.502-25.393,42.012-34.891
	c59.178-23.908,104.322,2.643,124.303,52.092c22.434,55.531-4.584,106.523-60.52,129.122c-6.486,2.621-12.816,4.77-18.986,6.471V425
	H218.566z"/>
</svg>
