<?xml version="1.0" encoding="utf-8"?>
<!-- Generator: Adobe Illustrator 16.0.4, SVG Export Plug-In . SVG Version: 6.00 Build 0)  -->
<!DOCTYPE svg PUBLIC "-//W3C//DTD SVG 1.1//EN" "http://www.w3.org/Graphics/SVG/1.1/DTD/svg11.dtd">
<svg version="1.1" id="Layer_1" xmlns="http://www.w3.org/2000/svg" xmlns:xlink="http://www.w3.org/1999/xlink" x="0px" y="0px"
	 width="425px" height="425px" viewBox="0 0 425 425" enable-background="new 0 0 425 425" xml:space="preserve">
<path fill="#FFFFFF" d="M425,220.405H290.866c-1.576,8.989-3.817,18.29-6.751,27.883c-26.713,87.374-87.363,122.773-158.852,100.917
	c-71.487-21.855-101.973-85.117-75.26-172.491S137.366,53.939,208.854,75.796c53.56,16.375,84.102,55.993,84.82,111.579H425V220.405
	z M217.227,227.838c17.766-58.11,11.57-90.175-23.965-101.039c-35.535-10.864-58.604,12.254-76.369,70.364
	s-11.569,90.175,23.965,101.039C176.393,309.065,199.461,285.948,217.227,227.838"/>
</svg>
