<?xml version="1.0" encoding="utf-8"?>
<!-- Generator: Adobe Illustrator 16.0.4, SVG Export Plug-In . SVG Version: 6.00 Build 0)  -->
<!DOCTYPE svg PUBLIC "-//W3C//DTD SVG 1.1//EN" "http://www.w3.org/Graphics/SVG/1.1/DTD/svg11.dtd">
<svg version="1.1" id="Layer_1" xmlns="http://www.w3.org/2000/svg" xmlns:xlink="http://www.w3.org/1999/xlink" x="0px" y="0px"
	 width="1156px" height="728px" viewBox="0 0 1156 728" enable-background="new 0 0 1156 728" xml:space="preserve">
<g>
	<defs>
		<rect id="SVGID_1_" width="1156" height="728"/>
	</defs>
	<clipPath id="SVGID_2_">
		<use xlink:href="#SVGID_1_"  overflow="visible"/>
	</clipPath>
	<g clip-path="url(#SVGID_2_)">
		<defs>
			<rect id="SVGID_3_" width="1156" height="728"/>
		</defs>
		<clipPath id="SVGID_4_">
			<use xlink:href="#SVGID_3_"  overflow="visible"/>
		</clipPath>
		<g clip-path="url(#SVGID_4_)">
			<g>
				<defs>
					<rect id="SVGID_5_" x="-9" y="-8" width="1174" height="737"/>
				</defs>
				<clipPath id="SVGID_6_">
					<use xlink:href="#SVGID_5_"  overflow="visible"/>
				</clipPath>
				<path clip-path="url(#SVGID_6_)" fill="#EF5367" d="M1156,728V0H897.761l31.819,59.842l59.254-31.506l25,47.019l-43.578,23.17
					l78.049,146.788l43.577-23.17l25,47.018l-144.111,76.625l-25-47.018l43.577-23.17l-78.049-146.788l-43.578,23.17l-25-47.018
					l58-30.839l1.255-0.666L864.917,0H489.11l-30.446,79.314l7.976,3.062c65.888,25.292,86.433,68.426,67.658,117.337
					c-14.431,37.593-47.279,51.883-79.956,43.978c25.066,15.651,34.374,37.312,25.722,68.311
					c-10.793,38.989-14.235,51.582-9.315,64.137l-62.251-23.896c-2.617-8.889,0.511-26.703,8.886-54.562
					c8.996-29.476-0.37-43.738-25.837-53.514l-51.336-19.706l-33.982,88.525L246,289.866l43.573-113.511l10.61-27.639
					l43.572-113.511l87.835,33.716L458.047,0H0v728h196.322l-17.268-44.622c-59.59,15.61-111.216-2.307-132.299-57.955
					l55.513-23.347c15.776,34.306,47.463,38.506,79.045,26.541c27.128-10.278,40.146-27.248,33.703-44.254
					s-22.959-15.379-46.915-11.396l-51,9.6c-43.404,7.646-80.742-4.136-97.156-47.46c-19.022-50.207,8.441-96.265,70.39-119.735
					c69.238-26.23,119.932-6.081,142.623,50.145l-56.072,23.096c-12.971-29.349-39.143-36.102-68.701-24.903
					c-25.913,9.817-36.501,25.867-29.905,43.278c5.523,14.576,18.854,15.544,38.86,12.132l50.999-9.599
					c55.76-10.477,89.467,6.387,105.267,48.091c19.071,50.337-12.541,93.196-66.331,116.164L228.048,728h439.218l17.959-46.786
					L590,644.661L687.755,390l98.631,37.86c78.714,30.216,112.957,91.795,91.294,165.282l-10.608,27.64
					c-29.625,61.898-86.198,86.651-154.239,69.437L698.329,728H1156z M438.008,127.967l-52.954-20.327l-26.688,69.527l52.953,20.327
					c31.934,12.258,51.267,9.012,60.888-16.05C480.896,158.808,469.941,140.225,438.008,127.967 M730.577,462.092l-60.515,157.647
					l33.146,12.724c48.104,18.466,87.166,0.068,106.407-50.056c18.931-49.316,2.211-89.126-45.892-107.591L730.577,462.092z"/>
			</g>
		</g>
	</g>
</g>
</svg>
